<?xml version="1.0" encoding="iso-8859-1"?>
<!-- Uploaded to: SVG Repo, www.svgrepo.com, Generator: SVG Repo Mixer Tools -->
<svg version="1.1" id="Layer_1" xmlns="http://www.w3.org/2000/svg" xmlns:xlink="http://www.w3.org/1999/xlink" 
	 viewBox="0 0 480 480" xml:space="preserve">
<path style="fill:#FCB641;" d="M72,40H56V24c0-4.416-3.584-8-8-8s-8,3.584-8,8v16H24c-4.416,0-8,3.584-8,8s3.584,8,8,8h16v16
	c0,4.416,3.584,8,8,8s8-3.584,8-8V56h16c4.416,0,8-3.584,8-8S76.416,40,72,40z"/>
<path style="fill:#ED7765;" d="M456,168h-16v-16c0-4.416-3.584-8-8-8s-8,3.584-8,8v16h-16c-4.416,0-8,3.584-8,8s3.584,8,8,8h16v16
	c0,4.416,3.584,8,8,8s8-3.584,8-8v-16h16c4.416,0,8-3.584,8-8S460.416,168,456,168z"/>
<polygon style="fill:#FCB641;" points="231.496,8 248.496,8 330.664,142.456 315.816,288 164.184,288 149.336,142.456 "/>
<rect x="152" y="288" style="fill:#EB805B;" width="176" height="48"/>
<circle style="fill:#FFFFFF;" cx="240" cy="199" r="23"/>
<rect x="168" y="336" style="fill:#E66032;" width="144" height="136"/>
<path style="fill:#4D4D4D;" d="M328,280h-3.328l13.96-136.728c0.176-1.744-0.216-3.496-1.128-4.984L255.328,3.832
	C253.872,1.448,251.288,0,248.496,0h-17c-2.784,0-5.376,1.448-6.832,3.832l-82.16,134.456c-0.912,1.496-1.312,3.24-1.128,4.984
	L155.328,280H152c-4.416,0-8,3.584-8,8v48c0,4.416,3.584,8,8,8h8v128c0,4.416,3.584,8,8,8h144c4.416,0,8-3.584,8-8V344h8
	c4.416,0,8-3.584,8-8v-48C336,283.584,332.416,280,328,280z M240,214c-8.272,0-15-6.728-15-15s6.728-15,15-15s15,6.728,15,15
	S248.272,214,240,214z M157.568,144.336L232,22.528V168.96c0,0.072,0.048,0.136,0.048,0.208C218.824,172.704,209,184.68,209,199.008
	c0,14.312,9.8,26.272,23,29.824V256c0,4.416,3.584,8,8,8c4.416,0,8-3.584,8-8v-27.176c13.2-3.552,23-15.512,23-29.824
	c0-14.328-9.824-26.296-23.048-29.84c0-0.072,0.048-0.136,0.048-0.208V22.528l74.432,121.808L308.584,280H171.416L157.568,144.336z
	 M304,464H176V344h56v72h-16c-4.416,0-8,3.584-8,8s3.584,8,8,8h48c4.416,0,8-3.584,8-8s-3.584-8-8-8h-16v-72h56V464z M320,328h-8
	H168h-8v-32h4.184h151.624H320V328z"/>
</svg>